<mxfile host="app.diagrams.net" modified="2024-04-22T16:13:59.517Z" agent="Mozilla/5.0 (Macintosh; Intel Mac OS X 10_15_7) AppleWebKit/537.36 (KHTML, like Gecko) Chrome/124.0.0.0 Safari/537.36" etag="Cefqzh52nT352lWFPQyA" version="24.2.7" type="github">
  <diagram name="Page-1" id="utmKdlZoEl02XPiKk-Q9">
    <mxGraphModel dx="1434" dy="769" grid="1" gridSize="10" guides="1" tooltips="1" connect="1" arrows="1" fold="1" page="1" pageScale="1" pageWidth="827" pageHeight="1169" math="0" shadow="0">
      <root>
        <mxCell id="0" />
        <mxCell id="1" parent="0" />
        <mxCell id="ppl8XJywZ17yAcSLAr6y-1" value="Time series" style="rounded=0;whiteSpace=wrap;html=1;direction=south;textDirection=vertical-rl;fillColor=#f8cecc;strokeColor=#b85450;" parent="1" vertex="1">
          <mxGeometry x="40" y="340" width="40" height="120" as="geometry" />
        </mxCell>
        <mxCell id="ppl8XJywZ17yAcSLAr6y-2" value="Tabular" style="rounded=0;whiteSpace=wrap;html=1;direction=south;textDirection=vertical-lr;fillColor=#dae8fc;strokeColor=#6c8ebf;" parent="1" vertex="1">
          <mxGeometry x="40" y="160" width="40" height="120" as="geometry" />
        </mxCell>
        <mxCell id="ppl8XJywZ17yAcSLAr6y-3" style="edgeStyle=orthogonalEdgeStyle;rounded=0;orthogonalLoop=1;jettySize=auto;html=1;" parent="1" source="ppl8XJywZ17yAcSLAr6y-4" target="ppl8XJywZ17yAcSLAr6y-28" edge="1">
          <mxGeometry relative="1" as="geometry" />
        </mxCell>
        <mxCell id="ppl8XJywZ17yAcSLAr6y-4" value="" style="ellipse;whiteSpace=wrap;html=1;rotation=90;fillColor=#fad7ac;strokeColor=#b46504;" parent="1" vertex="1">
          <mxGeometry x="100" y="180" width="120" height="80" as="geometry" />
        </mxCell>
        <mxCell id="ppl8XJywZ17yAcSLAr6y-5" value="&lt;font size=&quot;1&quot;&gt;&lt;b style=&quot;font-size: 15px;&quot;&gt;Q&lt;/b&gt;&lt;/font&gt;" style="ellipse;whiteSpace=wrap;html=1;aspect=fixed;" parent="1" vertex="1">
          <mxGeometry x="140" y="170" width="40" height="40" as="geometry" />
        </mxCell>
        <mxCell id="ppl8XJywZ17yAcSLAr6y-6" value="&lt;font size=&quot;1&quot;&gt;&lt;b style=&quot;font-size: 15px;&quot;&gt;K/V&lt;/b&gt;&lt;/font&gt;" style="ellipse;whiteSpace=wrap;html=1;aspect=fixed;" parent="1" vertex="1">
          <mxGeometry x="140" y="230" width="40" height="40" as="geometry" />
        </mxCell>
        <mxCell id="ppl8XJywZ17yAcSLAr6y-11" style="edgeStyle=orthogonalEdgeStyle;rounded=0;orthogonalLoop=1;jettySize=auto;html=1;entryX=0.5;entryY=1;entryDx=0;entryDy=0;" parent="1" source="ppl8XJywZ17yAcSLAr6y-12" target="ppl8XJywZ17yAcSLAr6y-32" edge="1">
          <mxGeometry relative="1" as="geometry">
            <mxPoint x="220" y="401.25" as="targetPoint" />
            <Array as="points" />
          </mxGeometry>
        </mxCell>
        <mxCell id="ppl8XJywZ17yAcSLAr6y-12" value="" style="ellipse;whiteSpace=wrap;html=1;rotation=90;fillColor=#fad7ac;strokeColor=#b46504;" parent="1" vertex="1">
          <mxGeometry x="100" y="361.25" width="120" height="80" as="geometry" />
        </mxCell>
        <mxCell id="ppl8XJywZ17yAcSLAr6y-13" value="&lt;font size=&quot;1&quot;&gt;&lt;b style=&quot;font-size: 15px;&quot;&gt;K/V&lt;/b&gt;&lt;/font&gt;" style="ellipse;whiteSpace=wrap;html=1;aspect=fixed;" parent="1" vertex="1">
          <mxGeometry x="140" y="351.25" width="40" height="40" as="geometry" />
        </mxCell>
        <mxCell id="ppl8XJywZ17yAcSLAr6y-14" value="&lt;font size=&quot;1&quot;&gt;&lt;b style=&quot;font-size: 15px;&quot;&gt;Q&lt;/b&gt;&lt;/font&gt;" style="ellipse;whiteSpace=wrap;html=1;aspect=fixed;" parent="1" vertex="1">
          <mxGeometry x="140" y="411.25" width="40" height="40" as="geometry" />
        </mxCell>
        <mxCell id="ppl8XJywZ17yAcSLAr6y-27" style="edgeStyle=orthogonalEdgeStyle;rounded=0;orthogonalLoop=1;jettySize=auto;html=1;" parent="1" source="ppl8XJywZ17yAcSLAr6y-28" edge="1">
          <mxGeometry relative="1" as="geometry">
            <mxPoint x="320" y="220" as="targetPoint" />
          </mxGeometry>
        </mxCell>
        <mxCell id="ppl8XJywZ17yAcSLAr6y-28" value="FFN" style="rounded=1;whiteSpace=wrap;html=1;rotation=90;fillColor=#b0e3e6;strokeColor=#0e8088;" parent="1" vertex="1">
          <mxGeometry x="200" y="195" width="100" height="50" as="geometry" />
        </mxCell>
        <mxCell id="ppl8XJywZ17yAcSLAr6y-32" value="FFN" style="rounded=1;whiteSpace=wrap;html=1;rotation=90;fillColor=#b0e3e6;strokeColor=#0e8088;" parent="1" vertex="1">
          <mxGeometry x="200" y="376.25" width="100" height="50" as="geometry" />
        </mxCell>
        <mxCell id="ppl8XJywZ17yAcSLAr6y-34" value="[CLS]" style="rounded=0;whiteSpace=wrap;html=1;fillColor=#1ba1e2;fontColor=#ffffff;strokeColor=#006EAF;" parent="1" vertex="1">
          <mxGeometry x="40" y="260" width="40" height="20" as="geometry" />
        </mxCell>
        <mxCell id="ppl8XJywZ17yAcSLAr6y-36" value="TabOutput" style="rounded=0;whiteSpace=wrap;html=1;rotation=90;fillColor=#dae8fc;strokeColor=#6c8ebf;" parent="1" vertex="1">
          <mxGeometry x="290" y="205" width="90" height="20" as="geometry" />
        </mxCell>
        <mxCell id="ppl8XJywZ17yAcSLAr6y-39" style="edgeStyle=orthogonalEdgeStyle;rounded=0;orthogonalLoop=1;jettySize=auto;html=1;" parent="1" edge="1">
          <mxGeometry relative="1" as="geometry">
            <mxPoint x="320" y="396.25" as="targetPoint" />
            <mxPoint x="275" y="396.25" as="sourcePoint" />
          </mxGeometry>
        </mxCell>
        <mxCell id="ppl8XJywZ17yAcSLAr6y-42" value="TSOutput" style="rounded=0;whiteSpace=wrap;html=1;rotation=90;fillColor=#dae8fc;strokeColor=#6c8ebf;" parent="1" vertex="1">
          <mxGeometry x="290" y="384.38" width="87.5" height="20" as="geometry" />
        </mxCell>
        <mxCell id="ppl8XJywZ17yAcSLAr6y-45" value="" style="rounded=0;whiteSpace=wrap;html=1;rotation=90;" parent="1" vertex="1">
          <mxGeometry x="730" y="282" width="120" height="35" as="geometry" />
        </mxCell>
        <mxCell id="ppl8XJywZ17yAcSLAr6y-46" value="[CLS]" style="rounded=0;whiteSpace=wrap;html=1;fillColor=#1ba1e2;fontColor=#ffffff;strokeColor=#006EAF;" parent="1" vertex="1">
          <mxGeometry x="772.5" y="299.5" width="40" height="20" as="geometry" />
        </mxCell>
        <mxCell id="ppl8XJywZ17yAcSLAr6y-47" value="Tab" style="rounded=0;whiteSpace=wrap;html=1;fillColor=#dae8fc;strokeColor=#6c8ebf;" parent="1" vertex="1">
          <mxGeometry x="772.5" y="239.5" width="40" height="60" as="geometry" />
        </mxCell>
        <mxCell id="ppl8XJywZ17yAcSLAr6y-48" value="TS" style="rounded=0;whiteSpace=wrap;html=1;fillColor=#f8cecc;strokeColor=#b85450;" parent="1" vertex="1">
          <mxGeometry x="772.5" y="319.5" width="40" height="40" as="geometry" />
        </mxCell>
        <mxCell id="ppl8XJywZ17yAcSLAr6y-49" value="" style="endArrow=classic;html=1;rounded=0;edgeStyle=orthogonalEdgeStyle;entryX=0.5;entryY=0;entryDx=0;entryDy=0;" parent="1" target="ppl8XJywZ17yAcSLAr6y-47" edge="1">
          <mxGeometry width="50" height="50" relative="1" as="geometry">
            <mxPoint x="730" y="169.5" as="sourcePoint" />
            <mxPoint x="786" y="169.5" as="targetPoint" />
          </mxGeometry>
        </mxCell>
        <mxCell id="ppl8XJywZ17yAcSLAr6y-50" value="" style="endArrow=classic;html=1;rounded=0;edgeStyle=orthogonalEdgeStyle;entryX=0.5;entryY=1;entryDx=0;entryDy=0;" parent="1" target="ppl8XJywZ17yAcSLAr6y-48" edge="1">
          <mxGeometry width="50" height="50" relative="1" as="geometry">
            <mxPoint x="730" y="429.5" as="sourcePoint" />
            <mxPoint x="793" y="499.5" as="targetPoint" />
          </mxGeometry>
        </mxCell>
        <mxCell id="ppl8XJywZ17yAcSLAr6y-54" value="Self-Attention" style="rounded=1;whiteSpace=wrap;html=1;rotation=90;fillColor=#b0e3e6;strokeColor=#0e8088;" parent="1" vertex="1">
          <mxGeometry x="836" y="274.5" width="100" height="50" as="geometry" />
        </mxCell>
        <mxCell id="ppl8XJywZ17yAcSLAr6y-55" value="" style="endArrow=classic;html=1;rounded=0;entryX=0.5;entryY=1;entryDx=0;entryDy=0;" parent="1" target="ppl8XJywZ17yAcSLAr6y-54" edge="1">
          <mxGeometry width="50" height="50" relative="1" as="geometry">
            <mxPoint x="812.5" y="299.5" as="sourcePoint" />
            <mxPoint x="862.5" y="249.5" as="targetPoint" />
          </mxGeometry>
        </mxCell>
        <mxCell id="ppl8XJywZ17yAcSLAr6y-56" value="Output" style="rounded=1;whiteSpace=wrap;html=1;fillColor=#d0cee2;strokeColor=#56517e;" parent="1" vertex="1">
          <mxGeometry x="951" y="264.5" width="60" height="70" as="geometry" />
        </mxCell>
        <mxCell id="ppl8XJywZ17yAcSLAr6y-57" value="" style="group;rotation=-90;" parent="1" vertex="1" connectable="0">
          <mxGeometry x="184" y="411.25" width="52.5" height="131.75" as="geometry" />
        </mxCell>
        <mxCell id="ppl8XJywZ17yAcSLAr6y-31" style="edgeStyle=orthogonalEdgeStyle;rounded=0;orthogonalLoop=1;jettySize=auto;html=1;exitX=1;exitY=0.5;exitDx=0;exitDy=0;" parent="ppl8XJywZ17yAcSLAr6y-57" edge="1">
          <mxGeometry relative="1" as="geometry">
            <mxPoint x="66.23076923076928" y="19.13461538461536" as="targetPoint" />
            <mxPoint x="66" y="18.75" as="sourcePoint" />
          </mxGeometry>
        </mxCell>
        <mxCell id="ppl8XJywZ17yAcSLAr6y-58" value="" style="endArrow=none;html=1;rounded=0;fontStyle=1;edgeStyle=orthogonalEdgeStyle;curved=1;strokeWidth=2;" parent="ppl8XJywZ17yAcSLAr6y-57" edge="1">
          <mxGeometry width="50" height="50" relative="1" as="geometry">
            <mxPoint x="16.916666666666668" y="101.24375" as="sourcePoint" />
            <mxPoint x="-53.083333333333336" y="57.181250000000006" as="targetPoint" />
            <Array as="points">
              <mxPoint x="16.916666666666668" y="71.86875" />
              <mxPoint x="-53.083333333333336" y="71.86875" />
            </Array>
          </mxGeometry>
        </mxCell>
        <mxCell id="ppl8XJywZ17yAcSLAr6y-59" value="" style="endArrow=none;html=1;rounded=0;edgeStyle=orthogonalEdgeStyle;curved=1;strokeWidth=2;" parent="ppl8XJywZ17yAcSLAr6y-57" edge="1">
          <mxGeometry width="50" height="50" relative="1" as="geometry">
            <mxPoint x="16.916666666666668" y="101.24375" as="sourcePoint" />
            <mxPoint x="86.91666666666667" y="57.181250000000006" as="targetPoint" />
            <Array as="points">
              <mxPoint x="16.916666666666668" y="71.86875" />
              <mxPoint x="86.91666666666667" y="71.86875" />
            </Array>
          </mxGeometry>
        </mxCell>
        <mxCell id="ppl8XJywZ17yAcSLAr6y-63" value="&lt;b style=&quot;font-size: 16px;&quot;&gt;x3&lt;/b&gt;" style="text;html=1;align=center;verticalAlign=middle;resizable=0;points=[];autosize=1;strokeColor=none;fillColor=none;" parent="ppl8XJywZ17yAcSLAr6y-57" vertex="1">
          <mxGeometry x="-4" y="101.75" width="40" height="30" as="geometry" />
        </mxCell>
        <mxCell id="ppl8XJywZ17yAcSLAr6y-60" value="" style="group;rotation=-90;" parent="1" vertex="1" connectable="0">
          <mxGeometry x="453" y="535" width="40" height="88.75" as="geometry" />
        </mxCell>
        <mxCell id="ppl8XJywZ17yAcSLAr6y-61" value="" style="endArrow=none;html=1;rounded=0;fontStyle=1;edgeStyle=orthogonalEdgeStyle;curved=1;strokeWidth=2;" parent="ppl8XJywZ17yAcSLAr6y-60" edge="1">
          <mxGeometry width="50" height="50" relative="1" as="geometry">
            <mxPoint x="18.984126984126984" y="76.66017287234044" as="sourcePoint" />
            <mxPoint x="-34.34920634920635" y="43.37892287234043" as="targetPoint" />
            <Array as="points">
              <mxPoint x="18.984126984126984" y="54.47267287234043" />
              <mxPoint x="-34.34920634920635" y="54.47267287234043" />
            </Array>
          </mxGeometry>
        </mxCell>
        <mxCell id="ppl8XJywZ17yAcSLAr6y-62" value="" style="endArrow=none;html=1;rounded=0;edgeStyle=orthogonalEdgeStyle;curved=1;strokeWidth=2;" parent="ppl8XJywZ17yAcSLAr6y-60" edge="1">
          <mxGeometry width="50" height="50" relative="1" as="geometry">
            <mxPoint x="18.984126984126984" y="76.66017287234044" as="sourcePoint" />
            <mxPoint x="72.31746031746032" y="43.37892287234043" as="targetPoint" />
            <Array as="points">
              <mxPoint x="18.984126984126984" y="54.47267287234043" />
              <mxPoint x="72.31746031746032" y="54.47267287234043" />
            </Array>
          </mxGeometry>
        </mxCell>
        <mxCell id="ppl8XJywZ17yAcSLAr6y-64" value="&lt;b style=&quot;font-size: 16px;&quot;&gt;x3&lt;/b&gt;" style="text;html=1;align=center;verticalAlign=middle;resizable=0;points=[];autosize=1;strokeColor=none;fillColor=none;" parent="1" vertex="1">
          <mxGeometry x="450" y="612" width="40" height="30" as="geometry" />
        </mxCell>
        <mxCell id="ppl8XJywZ17yAcSLAr6y-67" value="" style="group;rotation=-90;" parent="1" vertex="1" connectable="0">
          <mxGeometry x="170" y="90" width="52.5" height="117.5" as="geometry" />
        </mxCell>
        <mxCell id="ppl8XJywZ17yAcSLAr6y-68" value="" style="endArrow=none;html=1;rounded=0;fontStyle=1;edgeStyle=orthogonalEdgeStyle;curved=1;strokeWidth=2;" parent="ppl8XJywZ17yAcSLAr6y-67" edge="1">
          <mxGeometry width="50" height="50" relative="1" as="geometry">
            <mxPoint x="30" y="16" as="sourcePoint" />
            <mxPoint x="100" y="60" as="targetPoint" />
            <Array as="points">
              <mxPoint x="30" y="45" />
              <mxPoint x="100" y="45" />
            </Array>
          </mxGeometry>
        </mxCell>
        <mxCell id="ppl8XJywZ17yAcSLAr6y-69" value="" style="endArrow=none;html=1;rounded=0;edgeStyle=orthogonalEdgeStyle;curved=1;strokeWidth=2;" parent="ppl8XJywZ17yAcSLAr6y-67" edge="1">
          <mxGeometry width="50" height="50" relative="1" as="geometry">
            <mxPoint x="30" y="16" as="sourcePoint" />
            <mxPoint x="-40" y="60" as="targetPoint" />
            <Array as="points">
              <mxPoint x="30" y="45" />
              <mxPoint x="-40" y="45" />
            </Array>
          </mxGeometry>
        </mxCell>
        <mxCell id="ppl8XJywZ17yAcSLAr6y-70" value="&lt;b style=&quot;font-size: 16px;&quot;&gt;x3&lt;/b&gt;" style="text;html=1;align=center;verticalAlign=middle;resizable=0;points=[];autosize=1;strokeColor=none;fillColor=none;" parent="1" vertex="1">
          <mxGeometry x="180.25" y="79" width="40" height="30" as="geometry" />
        </mxCell>
        <mxCell id="ppl8XJywZ17yAcSLAr6y-71" value="(X-Tab)" style="text;html=1;align=center;verticalAlign=middle;resizable=0;points=[];autosize=1;strokeColor=none;fillColor=none;" parent="1" vertex="1">
          <mxGeometry x="209" y="79" width="60" height="30" as="geometry" />
        </mxCell>
        <mxCell id="ppl8XJywZ17yAcSLAr6y-116" style="edgeStyle=orthogonalEdgeStyle;rounded=0;orthogonalLoop=1;jettySize=auto;html=1;entryX=0.5;entryY=1;entryDx=0;entryDy=0;" parent="1" source="ppl8XJywZ17yAcSLAr6y-73" target="ppl8XJywZ17yAcSLAr6y-90" edge="1">
          <mxGeometry relative="1" as="geometry" />
        </mxCell>
        <mxCell id="ppl8XJywZ17yAcSLAr6y-73" value="" style="ellipse;whiteSpace=wrap;html=1;rotation=90;fillColor=#fad7ac;strokeColor=#b46504;" parent="1" vertex="1">
          <mxGeometry x="360" y="170" width="120" height="80" as="geometry" />
        </mxCell>
        <mxCell id="ppl8XJywZ17yAcSLAr6y-74" value="&lt;font size=&quot;1&quot;&gt;&lt;b style=&quot;font-size: 15px;&quot;&gt;Q&lt;/b&gt;&lt;/font&gt;" style="ellipse;whiteSpace=wrap;html=1;aspect=fixed;" parent="1" vertex="1">
          <mxGeometry x="400" y="160" width="40" height="40" as="geometry" />
        </mxCell>
        <mxCell id="ppl8XJywZ17yAcSLAr6y-75" value="&lt;font size=&quot;1&quot;&gt;&lt;b style=&quot;font-size: 15px;&quot;&gt;K/V&lt;/b&gt;&lt;/font&gt;" style="ellipse;whiteSpace=wrap;html=1;aspect=fixed;" parent="1" vertex="1">
          <mxGeometry x="400" y="220" width="40" height="40" as="geometry" />
        </mxCell>
        <mxCell id="ppl8XJywZ17yAcSLAr6y-76" style="edgeStyle=orthogonalEdgeStyle;rounded=0;orthogonalLoop=1;jettySize=auto;html=1;entryX=0.5;entryY=1;entryDx=0;entryDy=0;" parent="1" source="ppl8XJywZ17yAcSLAr6y-77" target="ppl8XJywZ17yAcSLAr6y-91" edge="1">
          <mxGeometry relative="1" as="geometry" />
        </mxCell>
        <mxCell id="ppl8XJywZ17yAcSLAr6y-77" value="" style="ellipse;whiteSpace=wrap;html=1;rotation=90;fillColor=#fad7ac;strokeColor=#b46504;" parent="1" vertex="1">
          <mxGeometry x="530" y="170" width="120" height="80" as="geometry" />
        </mxCell>
        <mxCell id="ppl8XJywZ17yAcSLAr6y-78" value="&lt;font size=&quot;1&quot;&gt;&lt;b style=&quot;font-size: 15px;&quot;&gt;Q&lt;/b&gt;&lt;/font&gt;" style="ellipse;whiteSpace=wrap;html=1;aspect=fixed;" parent="1" vertex="1">
          <mxGeometry x="570" y="160" width="40" height="40" as="geometry" />
        </mxCell>
        <mxCell id="ppl8XJywZ17yAcSLAr6y-79" value="&lt;font size=&quot;1&quot;&gt;&lt;b style=&quot;font-size: 15px;&quot;&gt;K/V&lt;/b&gt;&lt;/font&gt;" style="ellipse;whiteSpace=wrap;html=1;aspect=fixed;" parent="1" vertex="1">
          <mxGeometry x="570" y="220" width="40" height="40" as="geometry" />
        </mxCell>
        <mxCell id="ppl8XJywZ17yAcSLAr6y-80" style="edgeStyle=orthogonalEdgeStyle;rounded=0;orthogonalLoop=1;jettySize=auto;html=1;entryX=0.5;entryY=1;entryDx=0;entryDy=0;" parent="1" source="ppl8XJywZ17yAcSLAr6y-81" target="ppl8XJywZ17yAcSLAr6y-93" edge="1">
          <mxGeometry relative="1" as="geometry">
            <mxPoint x="474" y="393.42" as="targetPoint" />
            <Array as="points" />
          </mxGeometry>
        </mxCell>
        <mxCell id="ppl8XJywZ17yAcSLAr6y-81" value="" style="ellipse;whiteSpace=wrap;html=1;rotation=90;fillColor=#fad7ac;strokeColor=#b46504;" parent="1" vertex="1">
          <mxGeometry x="354" y="353.42" width="120" height="80" as="geometry" />
        </mxCell>
        <mxCell id="ppl8XJywZ17yAcSLAr6y-82" value="&lt;font size=&quot;1&quot;&gt;&lt;b style=&quot;font-size: 15px;&quot;&gt;K/V&lt;/b&gt;&lt;/font&gt;" style="ellipse;whiteSpace=wrap;html=1;aspect=fixed;" parent="1" vertex="1">
          <mxGeometry x="394" y="343.42" width="40" height="40" as="geometry" />
        </mxCell>
        <mxCell id="ppl8XJywZ17yAcSLAr6y-83" value="&lt;font size=&quot;1&quot;&gt;&lt;b style=&quot;font-size: 15px;&quot;&gt;Q&lt;/b&gt;&lt;/font&gt;" style="ellipse;whiteSpace=wrap;html=1;aspect=fixed;" parent="1" vertex="1">
          <mxGeometry x="394" y="403.42" width="40" height="40" as="geometry" />
        </mxCell>
        <mxCell id="ppl8XJywZ17yAcSLAr6y-84" style="edgeStyle=orthogonalEdgeStyle;rounded=0;orthogonalLoop=1;jettySize=auto;html=1;entryX=0.5;entryY=1;entryDx=0;entryDy=0;" parent="1" source="ppl8XJywZ17yAcSLAr6y-85" target="ppl8XJywZ17yAcSLAr6y-94" edge="1">
          <mxGeometry relative="1" as="geometry" />
        </mxCell>
        <mxCell id="ppl8XJywZ17yAcSLAr6y-85" value="" style="ellipse;whiteSpace=wrap;html=1;rotation=90;fillColor=#fad7ac;strokeColor=#b46504;" parent="1" vertex="1">
          <mxGeometry x="524" y="354.38" width="120" height="80" as="geometry" />
        </mxCell>
        <mxCell id="ppl8XJywZ17yAcSLAr6y-86" value="&lt;font size=&quot;1&quot;&gt;&lt;b style=&quot;font-size: 15px;&quot;&gt;Q&lt;/b&gt;&lt;/font&gt;" style="ellipse;whiteSpace=wrap;html=1;aspect=fixed;" parent="1" vertex="1">
          <mxGeometry x="564" y="344.38" width="40" height="40" as="geometry" />
        </mxCell>
        <mxCell id="ppl8XJywZ17yAcSLAr6y-87" value="&lt;font size=&quot;1&quot;&gt;&lt;b style=&quot;font-size: 15px;&quot;&gt;K/V&lt;/b&gt;&lt;/font&gt;" style="ellipse;whiteSpace=wrap;html=1;aspect=fixed;" parent="1" vertex="1">
          <mxGeometry x="564" y="404.38" width="40" height="40" as="geometry" />
        </mxCell>
        <mxCell id="ppl8XJywZ17yAcSLAr6y-90" value="FFN" style="rounded=1;whiteSpace=wrap;html=1;rotation=90;fillColor=#b0e3e6;strokeColor=#0e8088;" parent="1" vertex="1">
          <mxGeometry x="456" y="185" width="100" height="50" as="geometry" />
        </mxCell>
        <mxCell id="ppl8XJywZ17yAcSLAr6y-91" value="FFN" style="rounded=1;whiteSpace=wrap;html=1;rotation=90;fillColor=#b0e3e6;strokeColor=#0e8088;" parent="1" vertex="1">
          <mxGeometry x="630" y="185" width="100" height="50" as="geometry" />
        </mxCell>
        <mxCell id="ppl8XJywZ17yAcSLAr6y-92" style="edgeStyle=orthogonalEdgeStyle;rounded=0;orthogonalLoop=1;jettySize=auto;html=1;exitX=1;exitY=0.5;exitDx=0;exitDy=0;" parent="1" source="ppl8XJywZ17yAcSLAr6y-93" edge="1">
          <mxGeometry relative="1" as="geometry">
            <mxPoint x="504.2307692307693" y="443.8046153846154" as="targetPoint" />
          </mxGeometry>
        </mxCell>
        <mxCell id="ppl8XJywZ17yAcSLAr6y-93" value="FFN" style="rounded=1;whiteSpace=wrap;html=1;rotation=90;fillColor=#b0e3e6;strokeColor=#0e8088;" parent="1" vertex="1">
          <mxGeometry x="454" y="368.42" width="100" height="50" as="geometry" />
        </mxCell>
        <mxCell id="ppl8XJywZ17yAcSLAr6y-94" value="FFN" style="rounded=1;whiteSpace=wrap;html=1;rotation=90;fillColor=#b0e3e6;strokeColor=#0e8088;" parent="1" vertex="1">
          <mxGeometry x="624" y="369.38" width="100" height="50" as="geometry" />
        </mxCell>
        <mxCell id="ppl8XJywZ17yAcSLAr6y-95" style="edgeStyle=orthogonalEdgeStyle;rounded=0;orthogonalLoop=1;jettySize=auto;html=1;entryX=0;entryY=0.5;entryDx=0;entryDy=0;" parent="1" source="ppl8XJywZ17yAcSLAr6y-1" target="ppl8XJywZ17yAcSLAr6y-13" edge="1">
          <mxGeometry relative="1" as="geometry">
            <mxPoint x="110" y="400.0000000000001" as="targetPoint" />
          </mxGeometry>
        </mxCell>
        <mxCell id="ppl8XJywZ17yAcSLAr6y-96" value="" style="endArrow=classic;html=1;rounded=0;entryX=0;entryY=0.5;entryDx=0;entryDy=0;edgeStyle=orthogonalEdgeStyle;" parent="1" target="ppl8XJywZ17yAcSLAr6y-14" edge="1">
          <mxGeometry width="50" height="50" relative="1" as="geometry">
            <mxPoint x="110" y="400" as="sourcePoint" />
            <mxPoint x="110" y="440" as="targetPoint" />
            <Array as="points">
              <mxPoint x="110" y="431" />
            </Array>
          </mxGeometry>
        </mxCell>
        <mxCell id="ppl8XJywZ17yAcSLAr6y-100" style="edgeStyle=orthogonalEdgeStyle;rounded=0;orthogonalLoop=1;jettySize=auto;html=1;" parent="1" source="ppl8XJywZ17yAcSLAr6y-2" target="ppl8XJywZ17yAcSLAr6y-5" edge="1">
          <mxGeometry relative="1" as="geometry" />
        </mxCell>
        <mxCell id="ppl8XJywZ17yAcSLAr6y-101" value="" style="endArrow=classic;html=1;rounded=0;entryX=0.01;entryY=0.371;entryDx=0;entryDy=0;entryPerimeter=0;edgeStyle=orthogonalEdgeStyle;" parent="1" target="ppl8XJywZ17yAcSLAr6y-6" edge="1">
          <mxGeometry width="50" height="50" relative="1" as="geometry">
            <mxPoint x="110" y="220" as="sourcePoint" />
            <mxPoint x="160" y="170" as="targetPoint" />
            <Array as="points">
              <mxPoint x="110" y="245" />
            </Array>
          </mxGeometry>
        </mxCell>
        <mxCell id="OuFpHorGHffY5CDJPRcC-3" value="" style="endArrow=classic;html=1;rounded=0;entryX=0.5;entryY=1;entryDx=0;entryDy=0;exitX=0.5;exitY=0;exitDx=0;exitDy=0;" parent="1" source="ppl8XJywZ17yAcSLAr6y-90" target="ppl8XJywZ17yAcSLAr6y-77" edge="1">
          <mxGeometry width="50" height="50" relative="1" as="geometry">
            <mxPoint x="540" y="210" as="sourcePoint" />
            <mxPoint x="590" y="160" as="targetPoint" />
          </mxGeometry>
        </mxCell>
        <mxCell id="dsO3QLPFe5pDZU9qkHeO-1" style="edgeStyle=orthogonalEdgeStyle;rounded=0;orthogonalLoop=1;jettySize=auto;html=1;entryX=0;entryY=0.5;entryDx=0;entryDy=0;" edge="1" parent="1" source="ppl8XJywZ17yAcSLAr6y-36" target="ppl8XJywZ17yAcSLAr6y-74">
          <mxGeometry relative="1" as="geometry" />
        </mxCell>
        <mxCell id="dsO3QLPFe5pDZU9qkHeO-2" style="edgeStyle=orthogonalEdgeStyle;rounded=0;orthogonalLoop=1;jettySize=auto;html=1;entryX=0;entryY=0.5;entryDx=0;entryDy=0;" edge="1" parent="1" source="ppl8XJywZ17yAcSLAr6y-36" target="ppl8XJywZ17yAcSLAr6y-82">
          <mxGeometry relative="1" as="geometry">
            <Array as="points">
              <mxPoint x="370" y="363" />
            </Array>
          </mxGeometry>
        </mxCell>
      </root>
    </mxGraphModel>
  </diagram>
</mxfile>
